PathFileType	4	(X/Y/Z)	/Users/niels/Desktop/University/Third Semester/Perception and Action/Exam/Gymnastics Motion Tracking/Code for Gym Tracking/Analyzed Data/Webcam_Backflip/id2002_2_baseline_Sports2D/id2002_2_baseline_Sports2D_px_person00.trc
DataRate	CameraRate	NumFrames	NumMarkers	Units	OrigDataRate	OrigDataStartFrame	OrigNumFrames
29.798657718120804	29.798657718120804	16	22	m	29.798657718120804	130	149
Frame#	Time	Hip			RHip			RKnee			RAnkle			RBigToe			RSmallToe			RHeel			LHip			LKnee			LAnkle			LBigToe			LSmallToe			LHeel			Neck			Head			Nose			RShoulder			RElbow			RWrist			LShoulder			LElbow			LWrist		
		X1	Y1	Z1	X2	Y2	Z2	X3	Y3	Z3	X4	Y4	Z4	X5	Y5	Z5	X6	Y6	Z6	X7	Y7	Z7	X8	Y8	Z8	X9	Y9	Z9	X10	Y10	Z10	X11	Y11	Z11	X12	Y12	Z12	X13	Y13	Z13	X14	Y14	Z14	X15	Y15	Z15	X16	Y16	Z16	X17	Y17	Z17	X18	Y18	Z18	X19	Y19	Z19	X20	Y20	Z20	X21	Y21	Z21	X22	Y22	Z22
130	4.3626126126126135	0.9902933424100973	-0.7085865870952841	0.0	0.989229438349706	-0.7186032789683195	0.0	0.9968001659343968	-1.0562525199515906	0.0	0.9784393606336532	-1.0752798999970605	0.0			0.0			0.0			0.0	1.0087037934798366	-0.7180171610862538	0.0	1.013982844545576	-1.0493196290315474	0.0	1.0377034108196839	-1.0763077730666817	0.0			0.0			0.0			0.0	1.0839498567029235	-0.2507476566755288	0.0	1.262032219880614	-0.10853764737272786	0.0	1.2212644207254277	-0.24331227490619875	0.0	1.05034826378525	-0.2654059287928619	0.0	1.0094618893583736	-0.5002919104109935	0.0	1.0981382221065117	-0.7541392542950859	0.0	1.0434778566938676	-0.2762157071712505	0.0	1.079605203317475	-0.4999380893071048	0.0	1.1680513495949159	-0.3993743052304832	0.0
131	4.396171171171171	0.9891871882953588	-0.7068628010813854	0.0	0.9909793661798885	-0.7173857475065781	0.0	0.998339823561221	-1.0560667308127183	0.0	0.9784409937653427	-1.0752749873440175	0.0			0.0			0.0			0.0	1.0022696169989473	-0.7162501894498132	0.0	1.012116644165813	-1.0484461581019904	0.0	1.0377908955560646	-1.076323446502087	0.0			0.0			0.0			0.0	1.0840096291428871	-0.2511849975876517	0.0	1.2631008193630617	-0.11081281253949621	0.0	1.221046846822731	-0.24547942407638712	0.0	1.0536052158416052	-0.2660136967913337	0.0	1.0138410835589813	-0.5005462272638969	0.0	1.1052422053385955	-0.7527278304983774	0.0	1.0384451496608718	-0.2745168970128114	0.0	1.0762422175023802	-0.4976956302956752	0.0	1.1679554950732858	-0.39870371337621124	0.0
132	4.42972972972973	0.9885703516727208	-0.7052338246301874	0.0	0.9931896944276187	-0.7161926115438434	0.0	1.0000577843625844	-1.05562090051421	0.0	0.9784444141934121	-1.0752696427435802	0.0			0.0			0.0			0.0	0.996542237040213	-0.7143976602511337	0.0	1.0093133300744879	-1.047340820677018	0.0	1.0377467195615653	-1.076340022067661	0.0			0.0			0.0			0.0	1.0841357753737892	-0.2516096598569585	0.0	1.2639392194544377	-0.113111512186091	0.0	1.220599188464189	-0.24770171841398003	0.0	1.056916152563232	-0.26654114835516823	0.0	1.0186409901299505	-0.5010009419634042	0.0	1.1131819439304154	-0.7509867403433703	0.0	1.0338864917197614	-0.2727444264800583	0.0	1.0727969889017073	-0.4958607351149851	0.0	1.1676487901067472	-0.3981948215791188	0.0
133	4.463288288288289	0.9882420435422984	-0.7037198208917385	0.0	0.995538243271937	-0.7150596300444346	0.0	1.0023535482312584	-1.0549454991512546	0.0	0.9784476495166343	-1.0752655619205134	0.0			0.0			0.0			0.0	0.9916686028088154	-0.7125974884409383	0.0	1.0055678345083823	-1.0458604632567547	0.0	1.0376471215474252	-1.0763475887402405	0.0			0.0			0.0			0.0	1.0843382040391614	-0.251928363398504	0.0	1.264572270342262	-0.11547017469061659	0.0	1.2199841951524033	-0.2497883984653052	0.0	1.0601999374499267	-0.2668844726093277	0.0	1.0241077555487228	-0.5017320645968882	0.0	1.1221973115425778	-0.7493179104950415	0.0	1.0298761988226581	-0.27074291568856906	0.0	1.0693755739935973	-0.49430251039143486	0.0	1.1671487543722372	-0.398002745578115	0.0
134	4.496846846846847	0.9879652470751629	-0.7024148174819099	0.0	0.9976120753338735	-0.7140370908897206	0.0	1.0052923088638603	-1.0541312647647902	0.0	0.9784499354698231	-1.0752631038789147	0.0			0.0			0.0			0.0	0.9874545698654102	-0.7110032600520529	0.0	1.0013437697153005	-1.0440442671092152	0.0	1.0375362597220963	-1.0763436293514788	0.0			0.0			0.0			0.0	1.0846304357886574	-0.2520505606400418	0.0	1.2650231058185215	-0.11790281980745591	0.0	1.2193713423948487	-0.2515815846625575	0.0	1.0633584308977038	-0.26701844372308686	0.0	1.0304320799677333	-0.502728464426846	0.0	1.1324652797279038	-0.7479803139043203	0.0	1.0263725601096285	-0.2684383380625642	0.0	1.0661954415274562	-0.49273229388169837	0.0	1.1665772361481135	-0.398125687547987	0.0
135	4.530405405405406	0.9875913724334786	-0.701427972198574	0.0	0.9990628871196696	-0.7131517781554231	0.0	1.008382014761821	-1.0532873938084992	0.0	0.9784512127231506	-1.0752619789555755	0.0			0.0			0.0			0.0	0.9836828977228789	-0.7097401380617124	0.0	0.9972303704438678	-1.042133963338852	0.0	1.0374398833517746	-1.076331908066882	0.0			0.0			0.0			0.0	1.0850496630113182	-0.25192304952360656	0.0	1.2653377475842986	-0.1203795561930672	0.0	1.2189608263878515	-0.25305909696841244	0.0	1.0662276553032985	-0.266960543114402	0.0	1.0377275462881994	-0.5039727278256619	0.0	1.144096529466222	-0.7469495786929841	0.0	1.0234493100996889	-0.26590317388742335	0.0	1.0633957788315977	-0.4910127888693112	0.0	1.1660783231901315	-0.3984370969571874	0.0
136	4.563963963963965	0.9870838769280103	-0.7007914600816356	0.0	0.99969219740434	-0.7123569147907922	0.0	1.0106331909332607	-1.0524888345702756	0.0	0.9784517289536716	-1.0752617078736304	0.0			0.0			0.0			0.0	0.9804348365182837	-0.7088898770085257	0.0	0.9938197682013479	-1.0404288528431334	0.0	1.0373826141931695	-1.0763228367482212	0.0			0.0			0.0			0.0	1.085637199179011	-0.25157587972304635	0.0	1.2657141342929261	-0.12282560493661283	0.0	1.2189477370496116	-0.2543416725379613	0.0	1.0685906213818055	-0.2667778573902283	0.0	1.0459820866095106	-0.5054692373919413	0.0	1.1570965772036288	-0.7459812300367867	0.0	1.021260136617257	-0.2633861167765477	0.0	1.0610488490017487	-0.48927703289412144	0.0	1.1657298163067038	-0.39880488159055666	0.0
137	4.597522522522523	0.986390174326606	-0.7004496836484297	0.0	0.9993878464090565	-0.7115668002120508	0.0	1.0109634485788626	-1.051763979465347	0.0	0.9784517917428783	-1.0752618624024024	0.0			0.0			0.0			0.0	0.9781209546898758	-0.7084663999578152	0.0	0.9917517248570222	-1.0391558183838123	0.0	1.037402772636741	-1.0763346240286773	0.0			0.0			0.0			0.0	1.0864133755944343	-0.25117104925181444	0.0	1.2664952150558093	-0.12516141304929468	0.0	1.2195035455666763	-0.2556512991878247	0.0	1.0703184370571839	-0.266590219619497	0.0	1.055033822196582	-0.5072324073714447	0.0	1.171340979434158	-0.7448578471260928	0.0	1.0198522130301433	-0.26127717362209746	0.0	1.0592999236796743	-0.48782677118237167	0.0	1.1655550295348924	-0.3992079010622271	0.0
138	4.631081081081081	0.9853083831409684	-0.700387477838125	0.0	0.9980515708499825	-0.7108710407653447	0.0	1.008810623927068	-1.051215362443788	0.0	0.9784516504089363	-1.075262150928834	0.0			0.0			0.0			0.0	0.9770747847635799	-0.7084883183147239	0.0	0.9914563106425205	-1.03847645770048	0.0	1.0375590987635386	-1.0763932694931877	0.0			0.0			0.0			0.0	1.087372309921263	-0.2509618560594428	0.0	1.2679998400936452	-0.12744191552447298	0.0	1.2206986774396726	-0.257263966418075	0.0	1.071440723405815	-0.2665591685445685	0.0	1.0646404855913019	-0.509265118287119	0.0	1.1865602992133368	-0.7434968759087375	0.0	1.0191429024279632	-0.259911778073375	0.0	1.0583853407175523	-0.4868844469555441	0.0	1.1656119202968704	-0.39976195909894874	0.0
139	4.66463963963964	0.9835070880670537	-0.7006667375240465	0.0	0.9955673803380303	-0.7105816298622051	0.0	1.0044574403486533	-1.051076614249364	0.0	0.9784514629475165	-1.075262416919196	0.0			0.0			0.0			0.0	0.9770958169977912	-0.7089968764657129	0.0	0.9929283606893304	-1.0385517086312253	0.0	1.037922017293727	-1.0765281921261591	0.0			0.0			0.0			0.0	1.0885501815271654	-0.25119990935733116	0.0	1.2704132893307676	-0.12998036748883018	0.0	1.2224350393182144	-0.2594269642407798	0.0	1.0720747935378707	-0.2668480024436319	0.0	1.074577241108187	-0.5115452062595713	0.0	1.2023058773729813	-0.7418074883294113	0.0	1.0190485485546703	-0.25936786166421205	0.0	1.0584705972652537	-0.4863852270693515	0.0	1.1660366548155725	-0.4006694746705405	0.0
140	4.698198198198199	0.9806976045135191	-0.7012362776829123	0.0	0.9918561637247677	-0.7108744266845596	0.0	0.9989371440827008	-1.0514989301772886	0.0	0.9784513070256526	-1.075262601836826	0.0			0.0			0.0			0.0	0.9772600755120595	-0.7098526148101169	0.0	0.9956458161877316	-1.0394437663616107	0.0	1.038539857054577	-1.0767592931232106	0.0			0.0			0.0			0.0	1.0901180106743669	-0.252050397391565	0.0	1.2737950850497612	-0.13325207465038147	0.0	1.2245057727087765	-0.26226848372129885	0.0	1.0724254500267694	-0.2675704342237067	0.0	1.0846611311566305	-0.5140793107181321	0.0	1.2180618492529707	-0.7396558344256264	0.0	1.0195398738765264	-0.25942802469902804	0.0	1.0594611290851819	-0.4859004794264609	0.0	1.1669409793933272	-0.4021156064139745	0.0
141	4.7317567567567576	0.9768261484384327	-0.7017921372863861	0.0	0.9870276657727468	-0.7114726978921466	0.0	0.9936453671664349	-1.0523199920519302	0.0	0.9784512061943827	-1.0752627033928381	0.0			0.0			0.0			0.0	0.9761602413993362	-0.7105921019567948	0.0	0.9985194668094998	-1.040882803295892	0.0	1.0393705834067455	-1.077071405439726	0.0			0.0			0.0			0.0	1.0923298561497525	-0.2535237335343445	0.0	1.2780892228359713	-0.13767092857226168	0.0	1.2266877381465282	-0.26579439898250795	0.0	1.0728537415676427	-0.26877635235020725	0.0	1.0947012166605883	-0.5169072840274359	0.0	1.2334970297409273	-0.7370544441197945	0.0	1.0205983916115888	-0.25965471590384226	0.0	1.0610212661725793	-0.4847395001867441	0.0	1.1682748204279434	-0.40414774305647466	0.0
142	4.765315315315316	0.9721383709359579	-0.7019465922418752	0.0	0.9814169467067274	-0.7118323228141762	0.0	0.9896095587733073	-1.0531344184945939	0.0	0.978451155311004	-1.0752627431351112	0.0			0.0			0.0			0.0	0.9727930945812225	-0.7106733191562948	0.0	1.0003561195467465	-1.0422656283899514	0.0	1.0401765401318936	-1.0773748733102344	0.0			0.0			0.0			0.0	1.0953134722584097	-0.25549441605518414	0.0	1.2831077808384395	-0.14342165669896897	0.0	1.2288072595432513	-0.26995496002043645	0.0	1.0737621457622502	-0.2704590652067466	0.0	1.1044843407771379	-0.5200091090157648	0.0	1.2485280059410508	-0.7342917896462542	0.0	1.0221462749603165	-0.2595867687001058	0.0	1.0627524100636954	-0.4823438167791523	0.0	1.169834710249687	-0.4066769377100984	0.0
143	4.798873873873874	0.9670856116065588	-0.7015290924927863	0.0	0.975418159946414	-0.7115870956813161	0.0	0.9867979996571542	-1.053543209893579	0.0	0.9784511387755931	-1.0752627466373073	0.0			0.0			0.0			0.0	0.9675146236486564	-0.7098960937609683	0.0	1.0006052185904015	-1.042990190424308	0.0	1.0403988960685788	-1.077458412843074	0.0			0.0			0.0			0.0	1.0989403614384516	-0.2578158007065989	0.0	1.288566815625415	-0.15034400622434665	0.0	1.2308873551160688	-0.27469851743763307	0.0	1.075336793904787	-0.2725561117109945	0.0	1.1138642560579988	-0.5232945782244233	0.0	1.2631177074525364	-0.7318554344983398	0.0	1.0240314772111967	-0.2590429458329539	0.0	1.06432614292427	-0.47875867328614746	0.0	1.171393744905996	-0.4096143051512461	0.0
144	4.832432432432433	0.9620953680706521	-0.7007092003319049	0.0	0.9693031715953967	-0.7107618030839109	0.0	0.9842076239540177	-1.0532771750012824	0.0	0.9784511408806466	-1.0752627342346184	0.0			0.0			0.0			0.0	0.9618720492945092	-0.7085360653672295	0.0	0.9994807260791541	-1.0427307102708037	0.0	1.0390647821045504	-1.0769542226094464	0.0			0.0			0.0			0.0	1.1029405238634902	-0.26039008043534734	0.0	1.2941831397815975	-0.1579403557327776	0.0	1.233243748675789	-0.27998154793434527	0.0	1.0775262426710777	-0.2749402137014512	0.0	1.1228170259795014	-0.5266972382417976	0.0	1.2770609285102894	-0.7301945941978139	0.0	1.0261230349960822	-0.2582663137983456	0.0	1.0655693629147733	-0.4747619557248233	0.0	1.1728360660334676	-0.4129556201508892	0.0
145	4.8659909909909915	0.9573476393633374	-0.699904662409174	0.0	0.9631476532508917	-0.7096887566820694	0.0	0.9806755291676832	-1.0522233314882838	0.0	0.9784511501124564	-1.0752627186129033	0.0			0.0			0.0			0.0	0.9574400133933577	-0.7071342188278358	0.0	0.9975828737806435	-1.0414451695168296	0.0	1.034833865191205	-1.0753556837629141	0.0			0.0			0.0			0.0	1.1071134576194097	-0.2631548989612973	0.0	1.2997726607233413	-0.1656095128359368	0.0	1.2363149713931318	-0.2857465802378819	0.0	1.080287065772461	-0.27744438020125173	0.0	1.131382158988624	-0.5302355545585681	0.0	1.289982281411686	-0.7294674525884143	0.0	1.028408449372409	-0.25773119022499275	0.0	1.066524664612969	-0.47150728757792953	0.0	1.1742451816886281	-0.4166988960588499	0.0
